<?xml version="1.0" standalone="no"?>
<!DOCTYPE svg PUBLIC "-//W3C//DTD SVG 20010904//EN"
 "http://www.w3.org/TR/2001/REC-SVG-20010904/DTD/svg10.dtd">
<svg version="1.0" xmlns="http://www.w3.org/2000/svg"
 width="3240.000000pt" height="673.000000pt" viewBox="0 0 3240.000000 673.000000"
 preserveAspectRatio="xMidYMid meet">
<metadata>
Created by potrace 1.16, written by Peter Selinger 2001-2019
</metadata>
<g transform="translate(0.000000,673.000000) scale(0.100000,-0.100000)"
fill="#ffffff" stroke="none">
<path d="M3080 6720 c-125 -12 -363 -50 -381 -60 -11 -7 -8 -31 14 -131 15
-67 28 -123 29 -124 2 -2 50 5 108 15 188 33 311 43 525 43 264 0 481 -25 718
-82 42 -10 79 -16 81 -12 6 9 76 233 76 242 0 14 -262 69 -450 94 -137 19
-581 28 -720 15z"/>
<path d="M2185 6551 c-216 -83 -438 -195 -624 -315 l-84 -54 -29 -93 c-87
-290 -225 -925 -205 -945 3 -3 22 3 44 14 84 42 360 150 573 222 l225 77 12
113 c17 154 58 406 94 575 27 125 94 400 106 433 7 18 -1 16 -112 -27z"/>
<path d="M4391 6438 c-22 -67 -38 -125 -33 -128 4 -4 68 -30 142 -59 74 -30
170 -71 212 -92 l77 -39 34 63 c77 140 87 160 87 168 0 18 -343 170 -457 203
-19 6 -24 -3 -62 -116z"/>
<path d="M2521 6445 c-25 -88 -71 -342 -100 -545 -40 -282 -46 -350 -34 -350
6 0 68 9 139 20 71 11 144 20 162 20 18 0 35 6 38 13 5 13 -169 823 -185 862
-7 17 -10 14 -20 -20z"/>
<path d="M3093 6233 c-37 -4 -43 -7 -42 -26 1 -35 25 -196 30 -201 2 -2 60 0
129 6 112 8 381 4 421 -8 13 -4 18 14 28 107 6 61 9 114 6 118 -7 7 -507 11
-572 4z"/>
<path d="M3891 6084 c-12 -58 -20 -108 -17 -111 5 -6 178 -44 182 -40 7 7 54
210 50 214 -7 7 -156 43 -177 43 -12 0 -21 -25 -38 -106z"/>
<path d="M4220 6000 c-21 -61 -30 -103 -25 -108 6 -5 71 -32 145 -61 262 -102
487 -237 748 -448 l33 -27 81 81 81 81 -38 34 c-159 140 -386 288 -610 398
-159 79 -335 150 -368 150 -7 0 -28 -45 -47 -100z"/>
<path d="M31923 5926 c-107 -35 -193 -118 -234 -224 -30 -82 -24 -206 14 -284
96 -196 345 -265 529 -147 233 150 211 508 -38 630 -55 27 -80 33 -147 36 -51
2 -98 -2 -124 -11z m246 -81 c176 -96 210 -346 66 -490 -76 -75 -188 -102
-291 -69 -77 24 -162 105 -187 178 -23 68 -22 163 3 229 26 68 96 140 164 167
74 29 174 23 245 -15z"/>
<path d="M31890 5576 l0 -216 35 0 35 0 0 96 0 95 37 -3 c35 -3 40 -8 92 -95
l56 -92 43 -1 42 0 -51 83 c-28 45 -56 87 -60 93 -6 8 1 16 20 24 43 18 61 51
61 114 0 44 -5 61 -24 83 -24 28 -26 28 -155 31 l-131 4 0 -216z m192 154 c43
-12 61 -38 52 -75 -9 -35 -32 -45 -108 -45 l-66 0 0 65 0 65 43 0 c23 0 59 -5
79 -10z"/>
<path d="M17381 5889 c-736 -57 -1255 -581 -1476 -1489 -223 -919 5 -1500 641
-1629 198 -40 445 -37 655 9 311 67 597 242 802 488 322 386 537 1026 537
1595 0 293 -46 472 -166 654 -183 277 -534 408 -993 372z m187 -570 c291 -62
382 -371 271 -923 -126 -629 -356 -977 -709 -1072 -100 -27 -275 -25 -367 4
-149 46 -237 154 -275 337 -17 84 -12 297 11 440 76 466 224 830 415 1021 172
172 415 244 654 193z"/>
<path d="M27703 5890 c-336 -28 -612 -154 -856 -390 -123 -118 -205 -223 -298
-378 -243 -408 -398 -1054 -359 -1495 46 -529 318 -821 816 -878 112 -13 292
-6 417 16 298 52 574 199 782 416 130 136 309 396 283 410 -20 10 -568 162
-571 158 -148 -219 -319 -374 -463 -419 -131 -40 -291 -36 -398 10 -62 26
-127 89 -159 152 -82 164 -85 381 -12 743 54 262 112 441 202 618 162 318 376
481 629 480 220 -2 355 -126 396 -364 9 -51 16 -69 28 -69 8 1 146 31 305 68
l290 67 3 41 c4 61 -24 234 -53 321 -71 213 -224 367 -436 437 -145 49 -364
71 -546 56z"/>
<path d="M9189 5838 c-59 -110 -1549 -3043 -1549 -3050 0 -4 146 -8 325 -8
l325 0 162 325 163 325 441 0 441 0 7 -252 c4 -139 9 -286 12 -325 l6 -73 322
0 322 0 -4 63 c-2 34 -45 726 -96 1537 l-91 1475 -387 3 -387 2 -12 -22z m261
-1249 c11 -266 20 -512 20 -546 l0 -63 -290 0 c-159 0 -290 3 -290 8 0 12 533
1092 537 1088 2 -2 13 -221 23 -487z"/>
<path d="M18946 5843 c-6 -19 -116 -529 -116 -538 0 -3 176 -5 390 -5 l390 0
-5 -22 c-3 -13 -127 -570 -275 -1238 -148 -668 -272 -1225 -275 -1237 l-5 -23
327 0 328 0 280 1260 279 1260 393 0 c216 0 393 2 393 4 0 7 111 521 116 539
5 16 -52 17 -1105 17 -1048 0 -1110 -1 -1115 -17z"/>
<path d="M24075 4328 c-429 -842 -781 -1535 -783 -1540 -2 -4 145 -8 327 -8
l331 0 162 325 163 325 436 0 437 0 6 -72 c3 -40 8 -187 12 -325 l7 -253 323
0 c277 0 324 2 324 15 0 25 -179 2907 -186 2988 l-6 77 -387 0 -386 0 -780
-1532z m1035 167 c10 -280 18 -510 16 -512 -2 -2 -134 -2 -294 -1 l-291 3 272
554 c257 525 272 553 275 510 1 -24 11 -273 22 -554z"/>
<path d="M29075 5848 c-5 -17 -115 -531 -115 -541 0 -4 176 -7 391 -7 367 0
390 -1 385 -17 -3 -10 -127 -567 -276 -1238 -149 -671 -274 -1230 -277 -1243
l-5 -22 328 2 328 3 280 1258 281 1257 391 0 391 0 43 198 c23 108 50 234 60
280 l18 82 -1109 0 c-879 0 -1111 -3 -1114 -12z"/>
<path d="M10820 4343 c-183 -830 -336 -1520 -338 -1536 l-4 -27 1053 2 1053 3
56 250 c31 138 59 262 63 278 l7 27 -725 0 c-619 0 -725 2 -725 14 0 14 145
691 156 728 5 17 41 18 517 20 l512 3 61 275 61 275 -509 3 c-394 2 -508 5
-508 15 0 6 30 148 67 314 l67 303 705 2 704 3 43 190 c24 105 52 229 62 278
l20 87 -1032 0 -1032 0 -334 -1507z"/>
<path d="M13646 5783 c-8 -38 -159 -720 -336 -1518 -177 -797 -323 -1458 -326
-1467 -5 -17 15 -18 323 -18 l329 0 134 610 135 610 215 0 215 0 146 -608 146
-607 357 -3 c309 -2 356 0 356 13 0 10 -307 1145 -356 1316 -3 12 9 21 43 34
391 145 639 481 683 923 36 357 -109 613 -409 722 -156 57 -198 60 -953 60
l-686 0 -16 -67z m1231 -498 c66 -23 130 -77 154 -129 35 -78 19 -235 -38
-354 -34 -73 -111 -149 -187 -186 -106 -51 -211 -66 -508 -73 -158 -4 -268 -2
-268 3 0 5 37 179 82 387 l83 378 315 -3 c275 -4 322 -6 367 -23z"/>
<path d="M21476 5783 c-8 -38 -160 -720 -336 -1518 -177 -797 -323 -1458 -326
-1467 -5 -17 15 -18 323 -18 l328 0 135 610 135 610 215 0 215 0 146 -608 146
-607 357 -3 c306 -2 356 0 356 12 0 8 -81 311 -180 672 -99 362 -180 659 -180
660 0 1 21 9 48 19 387 144 637 481 682 919 36 360 -108 616 -409 726 -156 57
-198 60 -953 60 l-686 0 -16 -67z m1231 -498 c66 -23 130 -77 154 -129 35 -77
19 -235 -36 -350 -58 -123 -170 -202 -338 -237 -72 -15 -152 -21 -359 -26
-158 -4 -268 -2 -268 3 0 5 37 179 82 387 l83 378 315 -3 c275 -4 322 -6 367
-23z"/>
<path d="M954 5738 c-241 -249 -435 -521 -588 -826 -69 -138 -149 -322 -142
-329 2 -2 50 27 107 65 134 89 292 182 452 266 93 50 128 74 131 89 3 12 14
92 26 177 19 141 79 457 114 603 7 31 10 57 6 57 -4 0 -52 -46 -106 -102z"/>
<path d="M3110 5729 c-36 -4 -98 -13 -138 -20 -67 -11 -73 -14 -68 -33 3 -11
13 -56 22 -99 16 -75 18 -78 41 -72 160 40 512 47 723 14 74 -12 149 -23 166
-26 30 -5 31 -4 63 82 19 48 29 91 25 95 -12 12 -197 47 -309 60 -104 11 -430
11 -525 -1z"/>
<path d="M5646 5654 l-96 -86 76 -81 c216 -232 414 -524 545 -803 59 -125 140
-341 170 -451 16 -61 26 -83 38 -82 9 0 66 15 126 33 130 39 126 23 63 216
-124 383 -302 722 -545 1035 -81 104 -260 305 -272 305 -5 0 -52 -39 -105 -86z"/>
<path d="M5307 5326 l-78 -72 75 -82 c275 -298 504 -698 601 -1050 10 -36 23
-61 29 -59 6 2 52 14 101 27 50 13 94 27 99 31 20 17 -100 352 -190 532 -93
185 -217 377 -343 531 -82 101 -191 216 -204 216 -7 -1 -47 -34 -90 -74z"/>
<path d="M2655 5284 c-44 -8 -125 -25 -179 -37 -95 -21 -100 -24 -108 -52 -25
-83 -5 -1021 22 -1065 5 -8 53 0 166 29 172 43 409 91 449 91 14 0 25 5 25 11
0 10 -211 927 -231 1002 -11 43 -16 44 -144 21z"/>
<path d="M3107 5256 c-48 -8 -91 -17 -94 -20 -5 -5 14 -106 33 -177 4 -13 14
-14 92 -2 117 18 375 17 487 -1 49 -9 93 -12 96 -8 12 13 61 173 55 179 -33
34 -505 54 -669 29z"/>
<path d="M3926 5148 c-8 -18 -25 -58 -39 -88 l-25 -56 67 -23 c36 -12 110 -43
164 -69 60 -28 101 -42 105 -36 4 6 28 37 53 70 25 32 49 65 53 72 12 20 -296
162 -350 162 -8 0 -20 -15 -28 -32z"/>
<path d="M1895 5076 c-303 -108 -680 -268 -695 -296 -5 -9 -15 -135 -21 -278
-10 -207 -10 -317 0 -524 7 -145 15 -266 19 -270 4 -4 106 33 227 81 121 49
319 122 440 164 l220 75 0 43 c0 24 -7 123 -15 219 -9 107 -15 305 -15 508 0
182 -2 332 -5 331 -3 0 -72 -24 -155 -53z"/>
<path d="M3255 4910 c-120 -9 -165 -18 -165 -33 1 -18 67 -297 72 -302 2 -2
37 1 78 7 64 9 287 6 329 -4 9 -2 27 44 59 150 24 84 43 154 41 157 -19 19
-274 34 -414 25z"/>
<path d="M3761 4708 c-30 -79 -56 -147 -57 -153 -2 -5 22 -18 54 -28 84 -27
207 -87 286 -140 38 -26 71 -47 75 -46 6 0 191 213 204 235 8 15 -136 115
-247 171 -69 35 -237 103 -253 103 -5 0 -33 -64 -62 -142z"/>
<path d="M5222 4688 c-39 -29 -71 -57 -72 -61 0 -5 27 -52 61 -105 80 -127
158 -291 205 -427 20 -61 41 -114 45 -119 9 -10 189 33 189 45 0 46 -117 339
-187 469 -56 105 -150 250 -161 250 -4 0 -40 -24 -80 -52z"/>
<path d="M4636 4649 l-66 -72 53 -56 c151 -158 289 -395 371 -634 4 -12 12
-16 23 -13 10 3 50 13 88 22 39 9 74 20 78 24 11 10 -47 170 -109 296 -30 61
-85 158 -123 215 -69 103 -224 289 -240 289 -5 0 -39 -32 -75 -71z"/>
<path d="M760 4563 c-242 -141 -441 -277 -592 -402 l-94 -78 -17 -94 c-23
-132 -45 -330 -52 -489 -6 -122 7 -436 19 -447 2 -2 37 19 76 47 168 120 442
282 672 396 100 50 137 73 134 84 -17 58 -31 364 -31 678 0 235 -4 362 -10
361 -5 0 -53 -25 -105 -56z"/>
<path d="M4333 4361 c-57 -60 -103 -111 -103 -115 0 -4 24 -35 54 -70 29 -35
72 -91 96 -125 42 -63 140 -256 140 -278 0 -25 23 -23 152 12 174 47 168 45
168 57 0 25 -76 201 -126 289 -79 141 -237 341 -269 338 -5 0 -56 -49 -112
-108z"/>
<path d="M6523 4016 c-62 -12 -115 -24 -117 -27 -2 -2 2 -40 10 -84 81 -452
49 -965 -86 -1414 -23 -73 -39 -135 -38 -136 11 -8 239 -97 242 -94 9 9 76
233 100 329 64 266 89 492 89 795 -1 304 -39 647 -73 652 -8 1 -66 -9 -127
-21z"/>
<path d="M2957 3940 c-120 -22 -326 -68 -448 -101 -70 -19 -79 -24 -79 -45 0
-50 73 -420 125 -629 48 -198 137 -510 148 -521 2 -2 55 9 118 26 153 39 397
88 486 96 72 7 73 7 66 33 -4 14 -66 280 -138 591 -116 501 -133 565 -151 567
-10 1 -68 -7 -127 -17z"/>
<path d="M6052 3930 c-45 -9 -85 -19 -87 -22 -3 -3 0 -29 5 -59 23 -118 40
-311 40 -446 l0 -143 63 0 c34 0 86 3 115 6 l52 7 0 121 c0 139 -13 294 -37
449 -19 124 -8 118 -151 87z"/>
<path d="M5587 3827 l-89 -20 6 -31 c4 -17 14 -92 23 -166 29 -253 4 -562 -67
-811 -16 -56 -29 -103 -27 -104 19 -14 182 -54 189 -47 15 15 76 272 93 393
24 167 30 373 15 529 -15 167 -32 273 -45 275 -6 2 -50 -7 -98 -18z"/>
<path d="M5122 3725 c-39 -6 -75 -14 -78 -17 -3 -3 0 -32 6 -65 18 -93 24
-327 11 -439 -11 -90 -50 -285 -65 -324 -5 -12 13 -21 86 -41 51 -15 96 -23
100 -20 11 10 46 151 65 261 21 122 24 449 4 573 -15 99 -4 93 -129 72z"/>
<path d="M2095 3717 c-214 -70 -590 -213 -762 -289 -85 -37 -93 -42 -93 -68 0
-50 60 -351 107 -535 47 -187 166 -561 187 -591 12 -15 28 -10 182 56 173 74
464 186 612 234 45 15 82 31 82 35 0 4 -20 74 -45 155 -83 272 -195 759 -221
954 -4 29 -9 54 -13 56 -3 2 -19 -1 -36 -7z"/>
<path d="M4718 3642 c-75 -15 -140 -30 -143 -34 -4 -3 -2 -56 5 -118 13 -127
2 -272 -31 -404 -11 -43 -19 -79 -17 -81 13 -9 300 -106 304 -103 11 11 53
200 63 283 23 186 5 486 -28 484 -9 0 -78 -13 -153 -27z"/>
<path d="M810 3179 c-245 -127 -543 -316 -709 -449 l-32 -26 37 -144 c68 -272
182 -562 314 -800 38 -69 74 -131 78 -138 7 -10 25 -1 77 38 146 110 402 270
602 375 l91 48 -35 96 c-103 279 -195 608 -253 906 -17 87 -32 160 -33 162 -1
1 -63 -30 -137 -68z"/>
<path d="M4431 2792 c-56 -97 -105 -164 -182 -247 l-61 -65 107 -115 c59 -63
111 -115 115 -115 15 0 168 169 219 241 67 95 144 236 138 252 -4 12 -261 127
-282 127 -5 0 -30 -35 -54 -78z"/>
<path d="M5308 2412 c-93 -190 -221 -370 -387 -545 l-75 -78 71 -71 71 -71 67
69 c108 110 212 239 298 369 85 129 212 375 200 386 -10 8 -164 59 -178 58 -6
0 -36 -53 -67 -117z"/>
<path d="M3380 2473 c-120 -13 -559 -102 -578 -118 -4 -3 117 -301 183 -450
60 -137 246 -509 316 -633 32 -57 44 -72 57 -67 9 4 95 28 189 53 95 26 171
52 170 57 -2 6 -64 270 -137 588 -109 468 -137 577 -149 575 -9 0 -32 -3 -51
-5z"/>
<path d="M4030 2364 c-69 -45 -221 -118 -280 -135 -25 -7 -46 -13 -47 -14 -4
-2 65 -306 71 -312 11 -11 167 44 274 97 131 63 245 138 238 156 -7 18 -188
244 -195 244 -3 0 -31 -17 -61 -36z"/>
<path d="M2338 2210 c-275 -96 -669 -258 -676 -278 -1 -5 44 -103 102 -218
153 -307 322 -582 528 -862 l69 -93 37 22 c173 102 429 229 590 290 34 13 62
27 62 30 0 4 -20 43 -45 88 -137 248 -313 624 -422 901 -36 91 -68 168 -72
172 -3 3 -81 -20 -173 -52z"/>
<path d="M5696 2133 c-87 -172 -226 -366 -399 -555 l-115 -125 80 -79 79 -79
112 115 c169 175 329 393 442 602 l46 87 -100 51 c-55 27 -103 50 -106 50 -2
0 -20 -30 -39 -67z"/>
<path d="M6190 2115 c-126 -289 -355 -625 -596 -875 l-106 -110 82 -95 c46
-52 88 -95 95 -95 18 0 220 212 320 337 170 212 334 477 436 701 28 62 50 114
48 116 -10 7 -228 96 -236 96 -6 0 -25 -34 -43 -75z"/>
<path d="M11142 2150 c-102 -27 -185 -74 -266 -150 -175 -165 -287 -433 -302
-725 -14 -255 79 -412 275 -465 24 -6 87 -11 140 -11 121 0 207 25 297 87 60
41 66 43 61 22 -3 -13 -9 -40 -13 -61 l-6 -38 98 3 97 3 73 325 c40 179 73
333 73 343 1 16 -17 17 -252 17 l-252 0 -23 -103 c-12 -56 -22 -108 -22 -115
0 -9 33 -12 121 -12 l121 0 -6 -26 c-17 -68 -105 -161 -185 -197 -25 -11 -75
-22 -111 -24 -94 -7 -144 21 -185 102 -28 57 -30 66 -29 175 1 91 7 136 28
214 85 312 243 469 434 426 69 -15 120 -62 142 -131 7 -24 15 -45 16 -47 1 -1
59 12 129 29 l127 32 -6 50 c-13 114 -102 225 -214 268 -83 32 -259 37 -360 9z"/>
<path d="M15045 2150 c-92 -24 -137 -44 -204 -90 -164 -111 -282 -313 -340
-583 -78 -365 8 -592 251 -662 68 -19 231 -22 316 -5 311 64 532 372 583 813
28 235 -37 413 -178 490 -109 59 -288 75 -428 37z m228 -221 c106 -54 138
-175 102 -383 -32 -185 -100 -343 -183 -429 -97 -100 -285 -128 -376 -56 -70
55 -93 186 -62 354 58 310 162 473 335 522 51 14 149 10 184 -8z"/>
<path d="M17015 2160 c-112 -24 -234 -94 -298 -170 -75 -88 -116 -226 -96
-318 22 -106 95 -170 289 -258 221 -99 266 -138 258 -224 -9 -91 -74 -154
-181 -177 -143 -30 -250 24 -294 147 -10 28 -21 50 -25 50 -4 0 -59 -21 -122
-46 l-114 -45 10 -42 c27 -120 154 -236 295 -268 69 -15 230 -13 308 6 95 22
167 59 234 121 94 86 155 224 155 349 1 157 -77 230 -386 365 -117 51 -168 95
-168 146 0 96 89 164 215 164 93 -1 156 -46 184 -132 7 -21 15 -38 17 -38 9 0
247 69 250 73 9 9 -28 107 -56 150 -67 100 -170 148 -330 153 -58 2 -123 -1
-145 -6z"/>
<path d="M12845 2128 c-35 -146 -285 -1287 -285 -1300 0 -17 25 -18 453 -18
l454 0 21 103 c12 56 22 108 22 115 0 9 -71 12 -321 12 -300 0 -320 1 -315 18
3 9 19 82 36 162 17 80 33 153 36 162 5 16 27 18 232 20 l226 3 23 95 c12 52
22 101 23 108 0 9 -52 12 -225 12 l-226 0 6 33 c4 17 19 86 34 152 l27 120
314 5 314 5 17 75 c10 41 20 90 24 108 l6 32 -445 0 -446 0 -5 -22z"/>
<path d="M18615 2128 c-34 -144 -285 -1287 -285 -1300 0 -16 12 -18 129 -18
125 0 129 1 134 22 3 13 29 127 57 253 28 127 53 237 56 246 4 14 30 17 192
22 205 6 266 17 364 69 114 61 189 158 227 298 56 201 3 338 -156 401 -56 23
-70 24 -385 27 l-327 3 -6 -23z m553 -213 c56 -23 76 -61 69 -131 -9 -88 -51
-150 -127 -190 -28 -15 -65 -19 -192 -22 -87 -2 -158 -2 -158 1 0 8 70 329 76
351 6 17 16 18 148 14 103 -4 152 -10 184 -23z"/>
<path d="M20597 1888 c-324 -633 -537 -1056 -537 -1066 0 -9 38 -12 128 -12
l127 0 73 145 72 145 203 0 204 0 6 -97 c4 -54 7 -119 7 -145 l0 -48 130 0
130 0 0 28 c0 15 -18 315 -40 667 -22 352 -40 641 -40 643 0 1 -74 2 -164 2
l-164 0 -135 -262z m258 -370 l7 -198 -147 0 c-82 0 -145 4 -143 9 2 5 62 128
133 274 l130 264 6 -76 c4 -42 10 -165 14 -273z"/>
<path d="M22155 2128 c-3 -13 -12 -54 -20 -93 -9 -38 -18 -78 -21 -87 -5 -17
8 -18 171 -18 l175 0 -5 -22 c-3 -13 -57 -257 -121 -543 -63 -286 -117 -528
-120 -537 -5 -17 6 -18 129 -18 l134 0 124 560 124 560 175 0 176 0 18 92 c11
50 21 100 24 110 4 17 -18 18 -477 18 l-481 0 -5 -22z"/>
<path d="M24093 2123 c-3 -16 -70 -316 -148 -668 l-142 -640 130 -3 c71 -1
131 -1 133 1 4 4 294 1309 294 1324 0 10 -32 13 -130 13 l-130 0 -7 -27z"/>
<path d="M25634 1998 c-42 -84 -193 -381 -335 -660 -143 -279 -259 -512 -259
-518 0 -6 48 -10 130 -10 l130 0 72 145 73 145 201 0 201 0 7 -52 c3 -29 6
-95 6 -145 l0 -93 130 0 130 0 0 42 c0 54 -68 1177 -76 1246 l-5 52 -165 0
-164 0 -76 -152z m201 -445 l7 -233 -146 0 -145 0 63 133 c35 72 94 194 132
270 69 138 69 138 75 100 4 -21 10 -143 14 -270z"/>
<path d="M27345 2128 c-35 -146 -285 -1287 -285 -1300 0 -17 24 -18 420 -18
231 0 420 2 420 5 0 8 40 187 46 208 5 16 -13 17 -286 17 l-290 0 5 23 c24 98
235 1063 235 1073 0 11 -27 14 -130 14 -126 0 -130 -1 -135 -22z"/>
<path d="M4326 1979 c-71 -50 -264 -152 -349 -184 -26 -10 -46 -23 -44 -29 2
-6 14 -48 28 -93 13 -46 29 -83 35 -83 19 0 205 79 274 117 97 53 250 156 250
169 0 13 -110 154 -119 153 -3 0 -37 -22 -75 -50z"/>
<path d="M1233 1725 c-213 -119 -354 -211 -529 -341 l-28 -22 51 -67 c204
-266 507 -543 808 -740 115 -75 306 -185 322 -185 5 0 22 14 39 31 16 17 70
65 119 107 50 42 90 81 89 87 -1 6 -33 54 -72 106 -191 258 -395 593 -549 904
-52 105 -100 191 -106 192 -7 2 -71 -31 -144 -72z"/>
<path d="M4685 1659 c-195 -151 -489 -299 -727 -364 -32 -9 -58 -19 -58 -23 1
-17 38 -183 41 -186 14 -13 314 93 454 159 162 78 469 275 462 298 -5 17 -113
146 -122 146 -5 0 -28 -13 -50 -30z"/>
<path d="M4990 1298 c-178 -140 -435 -287 -655 -373 -66 -26 -122 -49 -124
-51 -10 -9 52 -214 65 -214 24 0 243 89 359 145 181 88 426 245 553 355 l23
19 -71 86 c-40 47 -75 85 -79 85 -3 0 -35 -23 -71 -52z"/>
<path d="M5325 992 c-17 -15 -41 -35 -54 -44 l-23 -17 86 -100 c48 -56 90
-101 93 -101 10 0 122 95 122 105 1 13 -171 185 -184 185 -6 0 -24 -13 -40
-28z"/>
<path d="M3635 973 c-71 -20 -132 -37 -134 -39 -5 -5 113 -172 179 -254 34
-41 89 -110 123 -153 34 -43 63 -75 64 -70 2 5 -15 128 -37 273 -22 144 -40
267 -40 271 0 13 -14 11 -155 -28z"/>
<path d="M3075 785 c-128 -52 -489 -231 -506 -251 -15 -19 35 -77 276 -321
l190 -193 174 -10 c155 -9 536 2 550 15 2 2 -39 62 -91 132 -138 186 -294 413
-379 552 -41 67 -81 120 -89 120 -8 0 -64 -20 -125 -44z"/>
<path d="M4385 465 c-33 -13 -112 -37 -175 -55 -63 -17 -120 -33 -126 -35 -8
-2 -4 -43 12 -131 13 -70 25 -129 27 -130 12 -12 437 122 437 137 0 15 -102
239 -109 238 -3 -1 -33 -12 -66 -24z"/>
<path d="M2231 300 c-33 -27 -62 -54 -65 -59 -9 -13 320 -128 332 -116 3 2
-10 21 -28 42 -100 114 -164 183 -171 183 -4 0 -35 -22 -68 -50z"/>
</g>
</svg>
