<?xml version="1.0" standalone="no"?>
<!DOCTYPE svg PUBLIC "-//W3C//DTD SVG 20010904//EN"
 "http://www.w3.org/TR/2001/REC-SVG-20010904/DTD/svg10.dtd">
<svg version="1.0" xmlns="http://www.w3.org/2000/svg"
 width="650.000000pt" height="591.000000pt" viewBox="0 0 650.000000 591.000000"
 preserveAspectRatio="xMidYMid meet">
<metadata>
Created by potrace 1.16, written by Peter Selinger 2001-2019
</metadata>
<g transform="translate(0.000000,591.000000) scale(0.100000,-0.100000)"
fill="#ffffff" stroke="none">
<path d="M1090 5078 c0 -71 20 -452 26 -505 l5 -43 262 -177 c862 -583 1095
-754 1320 -973 239 -231 389 -460 483 -737 20 -59 41 -112 46 -118 5 -6 6 18
3 60 -51 550 -260 936 -755 1389 -388 355 -804 703 -1302 1090 l-88 68 0 -54z"/>
<path d="M5229 4994 c-563 -443 -1018 -830 -1318 -1119 -310 -300 -506 -615
-595 -959 -29 -110 -59 -310 -54 -364 3 -33 6 -27 36 63 45 136 158 362 234
467 237 327 464 514 1408 1153 234 158 428 291 432 294 7 7 42 590 35 597 -2
2 -82 -57 -178 -132z"/>
<path d="M570 4542 c0 -20 129 -574 135 -580 2 -2 151 -66 332 -141 865 -362
1313 -579 1603 -779 235 -162 396 -319 531 -519 28 -41 53 -72 56 -70 8 9 -67
174 -122 267 -85 143 -159 236 -304 380 -233 232 -445 379 -1271 880 -859 521
-960 580 -960 562z"/>
<path d="M5535 4324 c-1172 -706 -1412 -859 -1655 -1053 -196 -158 -371 -353
-485 -545 -59 -98 -128 -251 -123 -268 2 -5 24 20 48 58 104 161 263 325 450
465 302 226 858 498 1875 918 l150 62 68 295 c38 163 67 297 65 299 -2 2 -179
-102 -393 -231z"/>
<path d="M202 3849 c3 -8 59 -137 124 -288 88 -201 124 -275 140 -281 11 -4
308 -70 660 -145 767 -164 936 -205 1204 -295 229 -76 394 -144 550 -227 97
-51 270 -158 270 -166 0 -2 -33 11 -72 30 -426 204 -1115 368 -1918 457 -467
52 -1160 94 -1160 69 0 -3 75 -147 167 -320 l167 -313 110 0 c174 0 743 -19
936 -30 623 -37 1114 -108 1466 -210 130 -38 181 -58 306 -117 l96 -46 94 46
c290 141 747 240 1378 297 337 30 502 39 985 51 242 6 445 12 451 14 8 2 326
584 343 628 7 19 -473 -4 -914 -44 -898 -81 -1657 -247 -2145 -470 -180 -82
64 71 272 170 390 187 609 251 1612 466 395 85 720 156 722 158 14 13 250 573
243 575 -13 5 -992 -342 -1504 -533 -650 -243 -998 -424 -1280 -668 -60 -52
-143 -133 -183 -180 l-74 -86 -31 37 c-118 141 -287 292 -450 401 -348 232
-680 370 -2119 880 -446 158 -454 160 -446 140z"/>
<path d="M361 2065 c-188 -60 -187 -344 3 -400 41 -12 147 -15 623 -15 633 0
601 3 671 -63 38 -37 67 -120 56 -164 -10 -42 -39 -95 -66 -120 -53 -50 -77
-53 -386 -53 l-288 0 -51 -25 c-69 -35 -106 -88 -111 -165 -7 -100 33 -175
113 -211 32 -15 66 -19 173 -19 156 0 206 -10 257 -53 98 -80 98 -224 0 -304
-51 -43 -102 -53 -258 -53 -121 0 -138 -2 -178 -23 -24 -13 -57 -43 -74 -66
-27 -39 -30 -50 -30 -120 0 -67 4 -83 27 -118 17 -26 45 -50 79 -67 l53 -26
675 0 c757 0 721 -3 788 73 82 94 65 240 -36 312 -41 29 -47 30 -184 36 -152
5 -178 13 -231 65 -42 42 -59 83 -59 139 0 56 17 97 59 139 66 65 -11 61 1064
61 l975 0 47 -28 c135 -79 135 -265 0 -344 l-47 -28 -436 -5 -436 -5 -40 -27
c-52 -34 -93 -113 -93 -177 1 -89 66 -177 147 -201 27 -8 375 -10 1180 -8
l1141 3 43 30 c127 90 118 290 -16 363 -23 13 -69 18 -195 22 -144 5 -170 9
-207 28 -50 26 -87 72 -104 130 -24 83 21 180 104 225 41 22 50 22 488 27
l446 5 42 28 c104 69 120 229 33 320 -62 66 -10 62 -862 67 -762 5 -776 5
-815 26 -109 57 -138 209 -58 305 56 66 33 63 623 69 586 5 562 3 621 67 42
45 59 87 59 148 0 102 -64 183 -162 205 -84 19 -1212 7 -1378 -14 -321 -41
-613 -123 -832 -232 l-66 -33 -44 24 c-179 100 -526 199 -849 241 -175 24
-1929 32 -1998 9z m2403 -406 c161 -40 208 -246 83 -356 -59 -51 -84 -55 -393
-51 l-281 3 -41 28 c-153 101 -127 311 45 373 48 17 522 20 587 3z"/>
<path d="M6037 2067 c-88 -28 -147 -109 -147 -202 0 -131 115 -229 246 -209
53 8 96 35 138 87 26 32 31 48 34 106 3 50 0 77 -13 102 -29 57 -76 98 -129
114 -58 17 -77 18 -129 2z"/>
<path d="M315 1236 c-72 -27 -135 -122 -135 -203 0 -69 63 -163 127 -190 44
-18 138 -17 179 3 85 41 139 152 115 239 -27 98 -92 154 -188 161 -36 3 -73
-1 -98 -10z"/>
</g>
</svg>
